<?xml version="1.0" encoding="UTF-8"?>
<svg id="_レイヤー_2" data-name="レイヤー 2" xmlns="http://www.w3.org/2000/svg" xmlns:xlink="http://www.w3.org/1999/xlink" viewBox="0 0 30 30">
  <defs>
    <style>
      .cls-1 {
        fill: none;
      }

      .cls-1, .cls-2, .cls-3 {
        stroke-width: 0px;
      }

      .cls-2 {
        fill: #fff;
      }

      .cls-3 {
        fill: #ff612c;
      }

      .cls-4 {
        clip-path: url(#clippath);
      }
    </style>
    <clipPath id="clippath">
      <rect class="cls-1" x="2" y="2" width="26" height="26"/>
    </clipPath>
  </defs>
  <g id="_レイヤー_1-2" data-name="レイヤー 1">
    <g>
      <rect class="cls-2" width="30" height="30" rx="4" ry="4"/>
      <g class="cls-4">
        <g>
          <path class="cls-3" d="M4.23,2c-1.23,0-2.23,1-2.23,2.23v21.54c0,1.23,1,2.23,2.23,2.23h21.54c1.23,0,2.23-1,2.23-2.23V4.23c0-1.23-1-2.23-2.23-2.23H4.23Z"/>
          <path class="cls-2" d="M12.12,24.72c-2.65-.72-4.39-3.72-4.39-6.42,0-5.35,6.12-7.84,6.12-10.53,0-2.09-1.55-2.62-1.85-2.78,2.63-.39,5.27.85,5.27,3.5,0,2.34-1.28,3.27-1.28,4.75s.97,2.04,1.79,2.35c-.41-.41-.93-1.12-.93-1.94,0-1.8,2.06-2.43,3.27-2.42-.03.01-.94.66-.94,1.66,0,2.03,3.1,2.92,3.1,6.32,0,3.9-3.82,6.65-8.31,6.14,2.12-.26,3.57-1.53,3.57-2.93,0-3.18-5.51-3.77-4.9-9.02-.69.42-2.96,2.83-2.96,6.67,0,2.78,1.53,4.21,2.46,4.66h0Z"/>
        </g>
      </g>
    </g>
  </g>
</svg>