<svg id="_レイヤー_2" data-name="レイヤー 2" xmlns="http://www.w3.org/2000/svg" viewBox="0 0 30 30"><defs><clipPath id="clippath"><path style="stroke-width:0;fill:none" d="M2 2h26v26H2z"/></clipPath><style>.cls-3{stroke-width:0;fill:#fff}</style></defs><g id="_レイヤー_1-2" data-name="レイヤー 1"><rect class="cls-3" width="30" height="30" rx="4" ry="4"/><g style="clip-path:url(#clippath)"><path d="M4.23 2C3 2 2 3 2 4.23v21.54C2 27 3 28 4.23 28h21.54C27 28 28 27 28 25.77V4.23C28 3 27 2 25.77 2H4.23Z" style="fill:#ffa202;stroke-width:0"/><path class="cls-3" d="M18.69 7.12c0-.31-.25-.55-.55-.55h-1.77c-.3 0-.55.24-.55.55v5.42h2.88V7.12Zm-5.93 8.18c.79 0 1.44-.14 1.44-.69V7.12c0-.31-.25-.55-.55-.55h-1.77c-.3 0-.55.24-.55.55v7.49c0 .55.65.69 1.44.69Zm9.86-8.73h-1.77c-.3 0-.55.24-.55.55v5.42h2.88V7.12c0-.31-.25-.55-.55-.55ZM14.2 18.22v-.39c0-.24-.2-.44-.44-.44H7.41c-.3 0-.55.25-.55.55v2.79c0 .53.27 1.04.72 1.33l2.77 1.81c.92.6 2.04.81 3.12.58 2.76-.57 6.46-1.71 8.66-2.67.64-.27 1.05-.91 1.05-1.6v-1.41h-8.42c-.3 0-.55-.25-.55-.55ZM8.27 15.3c.79 0 1.44-.14 1.44-.69V7.12c0-.31-.25-.55-.55-.55H7.39c-.3 0-.55.24-.55.55v7.49c0 .55.65.69 1.44.69Zm7.54.36c0 .95.18 1.73.83 1.73h6.53v-3.47h-6.53c-.66 0-.83.78-.83 1.74Z"/></g></g></svg>