<?xml version="1.0" encoding="UTF-8"?>
<svg id="_レイヤー_2" data-name="レイヤー 2" xmlns="http://www.w3.org/2000/svg" xmlns:xlink="http://www.w3.org/1999/xlink" viewBox="0 0 30 30">
  <defs>
    <style>
      .cls-1 {
        fill: none;
      }

      .cls-1, .cls-2, .cls-3 {
        stroke-width: 0px;
      }

      .cls-2 {
        fill: #fff;
      }

      .cls-4 {
        clip-path: url(#clippath);
      }

      .cls-3 {
        fill: #9fa424;
      }
    </style>
    <clipPath id="clippath">
      <rect class="cls-1" x="2" y="2" width="26" height="26"/>
    </clipPath>
  </defs>
  <g id="_レイヤー_1-2" data-name="レイヤー 1">
    <g>
      <rect class="cls-2" width="30" height="30" rx="4" ry="4"/>
      <g class="cls-4">
        <g>
          <path class="cls-3" d="M4.23,2c-1.23,0-2.23,1-2.23,2.23v21.54c0,1.23,1,2.23,2.23,2.23h21.54c1.23,0,2.23-1,2.23-2.23V4.23c0-1.23-1-2.23-2.23-2.23H4.23Z"/>
          <path class="cls-2" d="M9.26,9.63c3.31,2.93,8.17,2.93,11.48,0,.58-.52.74-.67.08-1.41-3.29-3.67-8.35-3.68-11.64,0-.66.74-.5.89.08,1.41h0ZM13.38,20.31c.87.48,2.37.48,3.24,0l-.51-1.57c-.42.16-1.8.16-2.23,0l-.5,1.57h0ZM12.91,21.8l-.51,1.58c1.67.68,3.53.68,5.2,0l-.51-1.58c-1.17.42-3,.42-4.18,0ZM23.88,12.86c-.85-2.75-1.48-2.1-2.37-1.35-1.18.97-2.8,1.71-4.44,2.04-.43.09-.96.26-.67,1.15l3.29,10.34c3.89-1.91,5.74-7.11,4.19-12.18ZM12.93,13.55c-1.64-.33-3.26-1.07-4.44-2.04-.9-.75-1.53-1.4-2.37,1.35-1.56,5.06.29,10.27,4.18,12.18l3.3-10.34c.28-.89-.25-1.06-.67-1.15Z"/>
        </g>
      </g>
    </g>
  </g>
</svg>