<?xml version="1.0" encoding="UTF-8"?>
<svg id="_レイヤー_2" data-name="レイヤー 2" xmlns="http://www.w3.org/2000/svg" xmlns:xlink="http://www.w3.org/1999/xlink" viewBox="0 0 30 30">
  <defs>
    <style>
      .cls-1 {
        fill: none;
      }

      .cls-1, .cls-2, .cls-3 {
        stroke-width: 0px;
      }

      .cls-2 {
        fill: #fff;
      }

      .cls-4 {
        clip-path: url(#clippath);
      }

      .cls-3 {
        fill: #6aaed3;
      }
    </style>
    <clipPath id="clippath">
      <rect class="cls-1" x="2" y="2" width="26" height="26"/>
    </clipPath>
  </defs>
  <g id="_レイヤー_1-2" data-name="レイヤー 1">
    <g>
      <rect class="cls-2" width="30" height="30" rx="4" ry="4"/>
      <g class="cls-4">
        <g>
          <path class="cls-3" d="M4.23,2c-1.23,0-2.23,1-2.23,2.23v21.54c0,1.23,1,2.23,2.23,2.23h21.54c1.23,0,2.23-1,2.23-2.23V4.23c0-1.23-1-2.23-2.23-2.23H4.23Z"/>
          <path class="cls-2" d="M22.11,9.75c-1.99.56-3.97,1.17-5.92,1.85-.13.05-.21.19-.18.33.79,3.49,1.77,6.96,2.94,10.35l5.85-4.25-2.69-8.28h0ZM19.25,15.04c-.58-.13-1.05-.6-1.18-1.19-.26-1.15.75-2.16,1.91-1.9.58.13,1.05.6,1.18,1.18.25,1.16-.75,2.16-1.91,1.91ZM13.59,11.2c-.16-.75-.03-1,.7-1.27,2.34-.85,4.72-1.61,7.13-2.29l-.37-1.14h-12.12l-3.73,11.46,9.35-2.67c-.35-1.36-.67-2.73-.96-4.09h0ZM10.58,9.71c-.49-.08-.88-.47-.96-.96-.12-.79.55-1.45,1.33-1.33.49.07.89.47.96.96.12.78-.54,1.45-1.33,1.33ZM6.82,19.22l8.17,5.94,2.09-1.52c-.78-2.22-1.49-4.47-2.11-6.74l-8.15,2.32Z"/>
        </g>
      </g>
    </g>
  </g>
</svg>