<?xml version="1.0" encoding="UTF-8"?>
<svg id="_レイヤー_2" data-name="レイヤー 2" xmlns="http://www.w3.org/2000/svg" xmlns:xlink="http://www.w3.org/1999/xlink" viewBox="0 0 30 30">
  <defs>
    <style>
      .cls-1 {
        fill: #2992ff;
      }

      .cls-1, .cls-2, .cls-3 {
        stroke-width: 0px;
      }

      .cls-2 {
        fill: none;
      }

      .cls-3 {
        fill: #fff;
      }

      .cls-4 {
        clip-path: url(#clippath);
      }
    </style>
    <clipPath id="clippath">
      <rect class="cls-2" x="2" y="2" width="26" height="26"/>
    </clipPath>
  </defs>
  <g id="_レイヤー_1-2" data-name="レイヤー 1">
    <g>
      <rect class="cls-3" width="30" height="30" rx="4" ry="4"/>
      <g class="cls-4">
        <g>
          <path class="cls-1" d="M4.23,2c-1.23,0-2.23,1-2.23,2.23v21.54c0,1.23,1,2.23,2.23,2.23h21.54c1.23,0,2.23-1,2.23-2.23V4.23c0-1.23-1-2.23-2.23-2.23H4.23Z"/>
          <path class="cls-3" d="M17.2,10.32c-1.04-2.2-1.31-4.49-1.73-5.45-.11-.26-.29-.38-.47-.38s-.35.12-.47.38c-.43.96-.69,3.25-1.73,5.45-1.96,4.15-4.03,5.81-4.03,8.94,0,4.05,3.17,6.26,6.23,6.26s6.23-2.21,6.23-6.26c0-3.13-2.06-4.79-4.03-8.94ZM15.01,23.95c-2.03,0-4.21-1-4.82-3.14-.06-.2-.02-.53.15-.62.2-.1.39,0,.6.09,2.51,1.22,5.64,1.22,8.15,0,.21-.1.4-.19.6-.09.16.09.2.41.15.62-.61,2.14-2.78,3.14-4.82,3.14Z"/>
        </g>
      </g>
    </g>
  </g>
</svg>