<?xml version="1.0" encoding="UTF-8"?>
<svg id="_レイヤー_2" data-name="レイヤー 2" xmlns="http://www.w3.org/2000/svg" xmlns:xlink="http://www.w3.org/1999/xlink" viewBox="0 0 30 30">
  <defs>
    <style>
      .cls-1 {
        fill: none;
      }

      .cls-1, .cls-2, .cls-3 {
        stroke-width: 0px;
      }

      .cls-2 {
        fill: #fff;
      }

      .cls-4 {
        clip-path: url(#clippath);
      }

      .cls-3 {
        fill: #994dcf;
      }
    </style>
    <clipPath id="clippath">
      <rect class="cls-1" x="2" y="2" width="26" height="26"/>
    </clipPath>
  </defs>
  <g id="_レイヤー_1-2" data-name="レイヤー 1">
    <g>
      <rect class="cls-2" width="30" height="30" rx="4" ry="4"/>
      <g class="cls-4">
        <g>
          <path class="cls-3" d="M4.23,2c-1.23,0-2.23,1-2.23,2.23v21.54c0,1.23,1,2.23,2.23,2.23h21.54c1.23,0,2.23-1,2.23-2.23V4.23c0-1.23-1-2.23-2.23-2.23H4.23Z"/>
          <path class="cls-2" d="M11.53,13.08c2.04,0,3.7-1.66,3.7-3.7s-1.66-3.7-3.7-3.7-3.7,1.66-3.7,3.7,1.66,3.7,3.7,3.7Z"/>
          <path class="cls-2" d="M19.25,16.55c1.23,0,2.22-.99,2.22-2.22s-.99-2.22-2.22-2.22-2.22.99-2.22,2.22.99,2.22,2.22,2.22Z"/>
          <path class="cls-2" d="M18.33,20.92c-.14-.01-.24-.12-.26-.25-.2-1.52-1.5-2.7-3.08-2.7s-2.88,1.18-3.08,2.7c-.02.14-.12.24-.26.25-3.84.28-6.58,1.03-6.58,1.92,0,1.12,4.44,2.03,9.93,2.03s9.93-.91,9.93-2.03c0-.89-2.75-1.64-6.6-1.92Z"/>
        </g>
      </g>
    </g>
  </g>
</svg>