<?xml version="1.0" encoding="UTF-8"?>
<svg id="_レイヤー_2" data-name="レイヤー 2" xmlns="http://www.w3.org/2000/svg" xmlns:xlink="http://www.w3.org/1999/xlink" viewBox="0 0 30 30">
  <defs>
    <style>
      .cls-1 {
        fill: #999;
      }

      .cls-1, .cls-2, .cls-3 {
        stroke-width: 0px;
      }

      .cls-2 {
        fill: none;
      }

      .cls-3 {
        fill: #fff;
      }

      .cls-4 {
        clip-path: url(#clippath);
      }
    </style>
    <clipPath id="clippath">
      <rect class="cls-2" x="2" y="2" width="26" height="26"/>
    </clipPath>
  </defs>
  <g id="_レイヤー_1-2" data-name="レイヤー 1">
    <g>
      <rect class="cls-3" width="30" height="30" rx="4" ry="4"/>
      <g class="cls-4">
        <g>
          <path class="cls-1" d="M4.23,2c-1.23,0-2.23,1-2.23,2.23v21.54c0,1.23,1,2.23,2.23,2.23h21.54c1.23,0,2.23-1,2.23-2.23V4.23c0-1.23-1-2.23-2.23-2.23H4.23Z"/>
          <path class="cls-3" d="M23.66,11.25c1.08-1.36.96-3.34-.34-4.54-1.29-1.2-3.26-1.19-4.54-.04-1.16-.49-2.44-.77-3.78-.77s-2.57.27-3.71.74c-1.28-1.13-3.23-1.12-4.5.07-1.27,1.18-1.42,3.11-.4,4.47-.68,1.32-1.07,2.82-1.07,4.41,0,5.34,4.34,9.68,9.68,9.68s9.68-4.34,9.68-9.68c0-1.56-.37-3.03-1.03-4.33h0ZM15,22.58c-3.85,0-6.99-3.14-6.99-6.99s3.14-6.99,6.99-6.99,6.99,3.13,6.99,6.99-3.14,6.99-6.99,6.99Z"/>
        </g>
      </g>
    </g>
  </g>
</svg>