<?xml version="1.0" encoding="UTF-8"?>
<svg id="_レイヤー_2" data-name="レイヤー 2" xmlns="http://www.w3.org/2000/svg" xmlns:xlink="http://www.w3.org/1999/xlink" viewBox="0 0 30 30">
  <defs>
    <style>
      .cls-1 {
        fill: none;
      }

      .cls-1, .cls-2, .cls-3 {
        stroke-width: 0px;
      }

      .cls-2 {
        fill: #fff;
      }

      .cls-3 {
        fill: #5462d6;
      }

      .cls-4 {
        clip-path: url(#clippath);
      }
    </style>
    <clipPath id="clippath">
      <rect class="cls-1" x="2" y="2" width="26" height="26"/>
    </clipPath>
  </defs>
  <g id="_レイヤー_1-2" data-name="レイヤー 1">
    <g>
      <rect class="cls-2" width="30" height="30" rx="4" ry="4"/>
      <g class="cls-4">
        <g>
          <path class="cls-3" d="M4.23,2c-1.23,0-2.23,1-2.23,2.23v21.54c0,1.23,1,2.23,2.23,2.23h21.54c1.23,0,2.23-1,2.23-2.23V4.23c0-1.23-1-2.23-2.23-2.23H4.23Z"/>
          <path class="cls-2" d="M17.39,3.87c-.27-.02-.77,2.4-1.21,4.85-.38-.07-.77-.11-1.18-.11s-.8.04-1.18.11c-.44-2.45-.94-4.87-1.21-4.85-.46.03-1.53,4.87-1.9,6.6-.92,1.04-1.49,2.48-1.49,4.25,0,2.27,1.31,4.46,2.82,5.85.05.05.09.11.09.18l.34,3.83c.04.37.74,1.55,2.53,1.55s2.49-1.18,2.52-1.55l.34-3.83c.01-.07.04-.13.09-.18,1.51-1.39,2.83-3.58,2.83-5.85,0-1.77-.57-3.21-1.49-4.25-.37-1.73-1.45-6.57-1.9-6.6h0ZM13.15,18.87c-.75-.18-2.19-.65-2.54-1.32-.44-.83-.37-2.92-.33-3.86.01-.2,0-.32.14-.03.5,1.03,2.01,3.56,2.93,4.93.25.36.3.41-.2.28h0ZM19.72,13.69c.04.94.11,3.03-.33,3.86-.35.67-1.78,1.14-2.54,1.32-.5.13-.45.08-.2-.28.92-1.37,2.43-3.9,2.93-4.93.14-.29.13-.17.14.03h0ZM24.14,10.45c-.07-.12-.12-.13-.1.04.28,2.19-.44,3.91-1.71,5.07-.14.13-.23.18-.3.57-.09.48-.42,1.82-1.16,2.99.78.73,1.6,2.43,2,3.3,1.59-1.84,2.76-3.97,2.76-6.63,0-2.06-.83-4.22-1.49-5.34h0ZM7.67,15.56c-1.26-1.16-1.98-2.88-1.7-5.07.02-.17-.03-.16-.11-.04-.66,1.12-1.49,3.28-1.49,5.34,0,2.66,1.17,4.8,2.77,6.63.39-.87,1.21-2.56,1.99-3.3-.73-1.17-1.07-2.51-1.15-2.99-.07-.39-.17-.43-.31-.56h0Z"/>
        </g>
      </g>
    </g>
  </g>
</svg>