<?xml version="1.0" encoding="UTF-8"?>
<svg id="_レイヤー_2" data-name="レイヤー 2" xmlns="http://www.w3.org/2000/svg" xmlns:xlink="http://www.w3.org/1999/xlink" viewBox="0 0 30 30">
  <defs>
    <style>
      .cls-1 {
        fill: #4f4747;
      }

      .cls-1, .cls-2, .cls-3 {
        stroke-width: 0px;
      }

      .cls-2 {
        fill: none;
      }

      .cls-3 {
        fill: #fff;
      }

      .cls-4 {
        clip-path: url(#clippath);
      }
    </style>
    <clipPath id="clippath">
      <rect class="cls-2" x="2" y="2" width="26" height="26"/>
    </clipPath>
  </defs>
  <g id="_レイヤー_1-2" data-name="レイヤー 1">
    <g>
      <rect class="cls-3" width="30" height="30" rx="4" ry="4"/>
      <g class="cls-4">
        <g>
          <path class="cls-1" d="M4.23,2c-1.23,0-2.23,1-2.23,2.23v21.54c0,1.23,1,2.23,2.23,2.23h21.54c1.23,0,2.23-1,2.23-2.23V4.23c0-1.23-1-2.23-2.23-2.23H4.23Z"/>
          <path class="cls-3" d="M22.36,9.01c-.61.96-1.96,1.77-3.7,2.24.34.87.54,1.87.54,2.94,0,3.3-1.88,5.99-4.2,5.99s-4.2-2.69-4.2-5.99c0-1.07.2-2.07.54-2.94-1.74-.47-3.09-1.28-3.7-2.24-1.45,1.59-2.33,3.5-2.33,5.18,0,3.76,4.35,8.62,9.69,8.62s9.68-4.86,9.68-8.62c0-1.68-.87-3.59-2.32-5.18h0Z"/>
          <path class="cls-3" d="M15,11.72c-.31,0-.61-.01-.91-.03-.34.58-.57,1.48-.57,2.5,0,1.75.66,3.17,1.48,3.17s1.47-1.42,1.47-3.17c0-1.02-.22-1.92-.57-2.5-.29.02-.6.03-.9.03h0Z"/>
        </g>
      </g>
    </g>
  </g>
</svg>