<?xml version="1.0" encoding="UTF-8"?>
<svg id="_レイヤー_2" data-name="レイヤー 2" xmlns="http://www.w3.org/2000/svg" xmlns:xlink="http://www.w3.org/1999/xlink" viewBox="0 0 30 30">
  <defs>
    <style>
      .cls-1 {
        fill: #ffb1ff;
      }

      .cls-1, .cls-2, .cls-3 {
        stroke-width: 0px;
      }

      .cls-2 {
        fill: none;
      }

      .cls-3 {
        fill: #fff;
      }

      .cls-4 {
        clip-path: url(#clippath);
      }
    </style>
    <clipPath id="clippath">
      <rect class="cls-2" x="2" y="2" width="26" height="26"/>
    </clipPath>
  </defs>
  <g id="_レイヤー_1-2" data-name="レイヤー 1">
    <g>
      <rect class="cls-3" width="30" height="30" rx="4" ry="4"/>
      <g class="cls-4">
        <g>
          <path class="cls-1" d="M4.23,2c-1.23,0-2.23,1-2.23,2.23v21.54c0,1.23,1,2.23,2.23,2.23h21.54c1.23,0,2.23-1,2.23-2.23V4.23c0-1.23-1-2.23-2.23-2.23H4.23Z"/>
          <path class="cls-3" d="M24.35,6.09c-.9-.91-5.7-.61-7.84,1.53-.71.7-1.21,1.51-1.51,2.34-.3-.83-.81-1.64-1.51-2.34-2.14-2.14-6.94-2.44-7.84-1.53-.88.88-1.08,7.94,4.26,9.47-1.45,1.03-1.98,3.69-1.56,4.26.37.51,3.47,1.04,5.03-.74-.87,2.26-1.85,6.22-1.22,6.41.64.2,2.35-4.13,2.84-7.16.49,3.03,2.2,7.36,2.84,7.16.63-.19-.35-4.15-1.22-6.41,1.56,1.78,4.66,1.25,5.03.74.42-.57-.11-3.23-1.56-4.26,5.34-1.53,5.14-8.59,4.26-9.47ZM15,15.54c-2.16,0-3.14-1.45-3.54-2.23,1.67,0,2.97-.59,3.54-2.88.57,2.29,1.87,2.88,3.54,2.88-.4.78-1.38,2.23-3.54,2.23Z"/>
        </g>
      </g>
    </g>
  </g>
</svg>