<?xml version="1.0" encoding="UTF-8"?>
<svg id="_レイヤー_2" data-name="レイヤー 2" xmlns="http://www.w3.org/2000/svg" xmlns:xlink="http://www.w3.org/1999/xlink" viewBox="0 0 30 30">
  <defs>
    <style>
      .cls-1 {
        fill: #95c9ff;
      }

      .cls-1, .cls-2, .cls-3 {
        stroke-width: 0px;
      }

      .cls-2 {
        fill: none;
      }

      .cls-3 {
        fill: #fff;
      }

      .cls-4 {
        clip-path: url(#clippath);
      }
    </style>
    <clipPath id="clippath">
      <rect class="cls-2" x="2" y="2" width="26" height="26"/>
    </clipPath>
  </defs>
  <g id="_レイヤー_1-2" data-name="レイヤー 1">
    <g>
      <rect class="cls-3" width="30" height="30" rx="4" ry="4"/>
      <g class="cls-4">
        <g>
          <path class="cls-1" d="M4.23,2c-1.23,0-2.23,1-2.23,2.23v21.54c0,1.23,1,2.23,2.23,2.23h21.54c1.23,0,2.23-1,2.23-2.23V4.23c0-1.23-1-2.23-2.23-2.23H4.23Z"/>
          <path class="cls-3" d="M6.87,24.83c-.55.61-.88,1.05-.83-.48.12-3.6,2.36-11.63,3.74-13.69,1.08-1.62,1.33-1.73,2.99-2.2,2.15-.6,3.56-.73,5.28-1.32,1.38-.47,4.25-1.58,5.71-1.93.38-.09.65-.07.74.04.1.12-.15.85-.46,1.39-.71,1.26-3.05,4.95-9.13,6.74-.6.18-1.04.74-.81.74,2.96.03,5.23-.84,6.88-1.45.94-.35.67,0,.64.09-.14.48-2.5,3.89-8.52,4.68-.34.05-1.29.55-.88.58,2.92.16,5.31-.43,5.51-.5.14-.05,1.08-.3.39.41-1.8,1.86-4.22,2.4-7.12,2.49-.81.02-.86-.01-1.42.76-.39.54-1.49,2.31-2.71,3.65h0Z"/>
        </g>
      </g>
    </g>
  </g>
</svg>