<?xml version="1.0" encoding="UTF-8"?>
<svg id="_レイヤー_2" data-name="レイヤー 2" xmlns="http://www.w3.org/2000/svg" xmlns:xlink="http://www.w3.org/1999/xlink" viewBox="0 0 30 30">
  <defs>
    <style>
      .cls-1 {
        fill: none;
      }

      .cls-1, .cls-2, .cls-3 {
        stroke-width: 0px;
      }

      .cls-2 {
        fill: #bcb889;
      }

      .cls-3 {
        fill: #fff;
      }

      .cls-4 {
        clip-path: url(#clippath);
      }
    </style>
    <clipPath id="clippath">
      <rect class="cls-1" x="2" y="2" width="26" height="26"/>
    </clipPath>
  </defs>
  <g id="_レイヤー_1-2" data-name="レイヤー 1">
    <g>
      <rect class="cls-3" width="30" height="30" rx="4" ry="4"/>
      <g class="cls-4">
        <g>
          <path class="cls-2" d="M4.23,2c-1.23,0-2.23,1-2.23,2.23v21.54c0,1.23,1,2.23,2.23,2.23h21.54c1.23,0,2.23-1,2.23-2.23V4.23c0-1.23-1-2.23-2.23-2.23H4.23Z"/>
          <path class="cls-3" d="M21.83,8.18c.44.96.75,1.99.92,3.05.19,1.14-.13.69-.51.22-1.09-1.36-2.33-2.6-3.68-3.69-.48-.38-.92-.69.22-.51,1.05.17,2.09.49,3.05.92l-2.83-2.82h-8l-5.65,5.65v8l2.82,2.83c-.73-1.61-1.25-3.34-1.54-5.09-.3-1.9.22-1.15.86-.36,1.82,2.26,3.87,4.31,6.13,6.13.79.64,1.54,1.17-.36.86-1.75-.28-3.48-.81-5.08-1.54l2.82,2.82h8l2.82-2.82c-1.6.73-3.33,1.25-5.08,1.54-1.9.31-1.16-.22-.37-.86,2.27-1.82,4.32-3.87,6.14-6.13.63-.79,1.16-1.54.86.36-.29,1.75-.81,3.48-1.54,5.09l2.82-2.83v-8l-2.82-2.82h0Z"/>
        </g>
      </g>
    </g>
  </g>
</svg>