<?xml version="1.0" encoding="UTF-8"?>
<svg id="_レイヤー_2" data-name="レイヤー 2" xmlns="http://www.w3.org/2000/svg" xmlns:xlink="http://www.w3.org/1999/xlink" viewBox="0 0 30 30">
  <defs>
    <style>
      .cls-1 {
        fill: #42d8ff;
      }

      .cls-1, .cls-2, .cls-3 {
        stroke-width: 0px;
      }

      .cls-2 {
        fill: none;
      }

      .cls-3 {
        fill: #fff;
      }

      .cls-4 {
        clip-path: url(#clippath);
      }
    </style>
    <clipPath id="clippath">
      <rect class="cls-2" x="2" y="2" width="26" height="26"/>
    </clipPath>
  </defs>
  <g id="_レイヤー_1-2" data-name="レイヤー 1">
    <g>
      <rect class="cls-3" width="30" height="30" rx="4" ry="4"/>
      <g class="cls-4">
        <g>
          <path class="cls-1" d="M4.23,2c-1.23,0-2.23,1-2.23,2.23v21.54c0,1.23,1,2.23,2.23,2.23h21.54c1.23,0,2.23-1,2.23-2.23V4.23c0-1.23-1-2.23-2.23-2.23H4.23Z"/>
          <path class="cls-3" d="M15,26.3l2.3-2.3-2.3-2.3-2.3,2.3,2.3,2.3ZM24.06,21.61v-3.26h-3.26v3.26h3.26ZM5.95,8.39v3.26h3.26v-3.26h-3.26ZM5.95,21.61h3.26v-3.26h-3.26v3.26ZM24.06,8.39h-3.26v3.26h3.26v-3.26ZM15,3.7l-2.3,2.3,2.3,2.3,2.3-2.3-2.3-2.3ZM9.2,11.65c-.11,2.24-.11,4.47,0,6.7,1.88,1.21,3.81,2.33,5.8,3.35,1.99-1.02,3.92-2.14,5.8-3.35.11-2.23.11-4.46,0-6.7-1.88-1.21-3.81-2.32-5.8-3.34-1.99,1.01-3.92,2.13-5.8,3.34ZM12.47,13.54c-.1,1.12-.13,2.25-.1,3.38h-1.67c-.07-1.14.08-3.42.19-4.29,1.08-.8,2.65-1.81,3.62-2.31l.83,1.45c-.99.53-1.96,1.12-2.88,1.77h0Z"/>
        </g>
      </g>
    </g>
  </g>
</svg>