<?xml version="1.0" encoding="UTF-8"?>
<svg id="_レイヤー_2" data-name="レイヤー 2" xmlns="http://www.w3.org/2000/svg" xmlns:xlink="http://www.w3.org/1999/xlink" viewBox="0 0 30 30">
  <defs>
    <style>
      .cls-1 {
        fill: none;
      }

      .cls-1, .cls-2, .cls-3 {
        stroke-width: 0px;
      }

      .cls-2 {
        fill: #fff;
      }

      .cls-3 {
        fill: #6e4570;
      }

      .cls-4 {
        clip-path: url(#clippath);
      }
    </style>
    <clipPath id="clippath">
      <rect class="cls-1" x="2" y="2" width="26" height="26"/>
    </clipPath>
  </defs>
  <g id="_レイヤー_1-2" data-name="レイヤー 1">
    <g>
      <rect class="cls-2" width="30" height="30" rx="4" ry="4"/>
      <g class="cls-4">
        <g>
          <path class="cls-3" d="M4.23,2c-1.23,0-2.23,1-2.23,2.23v21.54c0,1.23,1,2.23,2.23,2.23h21.54c1.23,0,2.23-1,2.23-2.23V4.23c0-1.23-1-2.23-2.23-2.23H4.23Z"/>
          <path class="cls-2" d="M23.72,15.04c-.81.04-1.43.35-1.87.67.16-.64.25-1.26.25-1.84,0-4.25-3.18-7.69-7.1-7.69s-7.11,3.44-7.11,7.69c0,.58.09,1.2.25,1.83-.44-.32-1.06-.62-1.86-.66-1.75-.08-2.86,3.52-2.37,3.71.48.19.84-.79,1.49-.78.61.02,1.06,2.07,2.03,2.2.55.07,1.48-.94,1.92-1.47,1.6,2.98,4.14,5.57,5.65,5.57s4.05-2.59,5.65-5.58c.44.53,1.37,1.55,1.93,1.48.97-.13,1.42-2.18,2.03-2.2.65-.01,1.01.97,1.49.78s-.62-3.79-2.37-3.71h-.01ZM13.09,14.26c-.67.27-1.62-.51-2.11-1.74-.5-1.23-.36-2.45.31-2.72.67-.27,1.62.51,2.11,1.74.5,1.23.36,2.45-.31,2.72ZM19.02,12.52c-.49,1.23-1.44,2.01-2.11,1.74-.67-.27-.81-1.49-.31-2.72s1.44-2.01,2.11-1.74c.67.27.81,1.49.31,2.72Z"/>
        </g>
      </g>
    </g>
  </g>
</svg>