<?xml version="1.0" encoding="UTF-8"?>
<svg id="_レイヤー_2" data-name="レイヤー 2" xmlns="http://www.w3.org/2000/svg" xmlns:xlink="http://www.w3.org/1999/xlink" viewBox="0 0 30 30">
  <defs>
    <style>
      .cls-1 {
        fill: #ab7939;
      }

      .cls-1, .cls-2, .cls-3 {
        stroke-width: 0px;
      }

      .cls-2 {
        fill: none;
      }

      .cls-3 {
        fill: #fff;
      }

      .cls-4 {
        clip-path: url(#clippath);
      }
    </style>
    <clipPath id="clippath">
      <rect class="cls-2" x="2" y="2" width="26" height="26"/>
    </clipPath>
  </defs>
  <g id="_レイヤー_1-2" data-name="レイヤー 1">
    <g>
      <rect class="cls-3" width="30" height="30" rx="4" ry="4"/>
      <g class="cls-4">
        <g>
          <path class="cls-1" d="M4.23,2c-1.23,0-2.23,1-2.23,2.23v21.54c0,1.23,1,2.23,2.23,2.23h21.54c1.23,0,2.23-1,2.23-2.23V4.23c0-1.23-1-2.23-2.23-2.23H4.23Z"/>
          <path class="cls-3" d="M22.64,8.01h-2.79v2.79h2.79v-2.79ZM10.22,5.59h-3.49v3.49h3.49v-3.49ZM13.67,10.13h-2.16v2.15h2.16v-2.15ZM24.95,20.71c-1.99.99-7.23,3.2-9.95,3.87-2.72-.67-7.96-2.88-9.95-3.87-.13.32-.47,1.16-.47,1.16,1.58.94,7.39,3.45,10.42,4.2,3.03-.75,8.83-3.26,10.41-4.2,0,0-.34-.84-.46-1.16ZM24.77,18.7v-.84c-2.68-1.38-6.84-2.96-9.77-3.94-2.92.98-7.08,2.56-9.77,3.94v.84c1.21.72,7.02,3.16,9.77,3.95,2.74-.79,8.55-3.23,9.77-3.95Z"/>
        </g>
      </g>
    </g>
  </g>
</svg>