<?xml version="1.0" encoding="UTF-8"?>
<svg id="_レイヤー_2" data-name="レイヤー 2" xmlns="http://www.w3.org/2000/svg" xmlns:xlink="http://www.w3.org/1999/xlink" viewBox="0 0 30 30">
  <defs>
    <style>
      .cls-1 {
        fill: none;
      }

      .cls-1, .cls-2, .cls-3 {
        stroke-width: 0px;
      }

      .cls-2 {
        fill: #42bf24;
      }

      .cls-3 {
        fill: #fff;
      }

      .cls-4 {
        clip-path: url(#clippath);
      }
    </style>
    <clipPath id="clippath">
      <rect class="cls-1" x="2" y="2" width="26" height="26"/>
    </clipPath>
  </defs>
  <g id="_レイヤー_1-2" data-name="レイヤー 1">
    <g>
      <rect class="cls-3" width="30" height="30" rx="4" ry="4"/>
      <g class="cls-4">
        <g>
          <path class="cls-2" d="M4.23,2c-1.23,0-2.23,1-2.23,2.23v21.54c0,1.23,1,2.23,2.23,2.23h21.54c1.23,0,2.23-1,2.23-2.23V4.23c0-1.23-1-2.23-2.23-2.23H4.23Z"/>
          <path class="cls-3" d="M12.4,9.61c-2.41,3.98-5.54,12.22-6.42,14.37-.22.52-.09.54.2.54h4.67c.69,0,.86-.18.93-.71.36-2.64,1.27-10.07,1.39-13.97.03-1.14-.49-.67-.76-.23h0Z"/>
          <path class="cls-3" d="M18.14,15.14c.33-2.1.8-6.62.86-8.97.03-1.06-.35-.72-.66-.19-.99,1.71-2.6,5.31-3.12,6.86-.45,1.37-.93,5.63-1.18,8.81-.12,1.66.53.82.84.26.98-1.77,2.35-4.39,2.97-5.79.14-.31.23-.64.29-.98h0Z"/>
          <path class="cls-3" d="M23.46,9.74c-2.37,3.36-6.72,12.17-7.6,14.38-.13.33-.03.39.27.38,1.02-.04,3.32,0,4.52.02.58,0,.96-.07,1.11-.62.67-2.57,1.91-10.21,2.34-13.93.13-1.1-.28-.74-.64-.22h0Z"/>
        </g>
      </g>
    </g>
  </g>
</svg>