<?xml version="1.0" encoding="UTF-8"?>
<svg id="_レイヤー_2" data-name="レイヤー 2" xmlns="http://www.w3.org/2000/svg" xmlns:xlink="http://www.w3.org/1999/xlink" viewBox="0 0 30 30">
  <defs>
    <style>
      .cls-1 {
        fill: #ff637f;
      }

      .cls-1, .cls-2, .cls-3 {
        stroke-width: 0px;
      }

      .cls-2 {
        fill: none;
      }

      .cls-3 {
        fill: #fff;
      }

      .cls-4 {
        clip-path: url(#clippath);
      }
    </style>
    <clipPath id="clippath">
      <rect class="cls-2" x="2" y="2" width="26" height="26"/>
    </clipPath>
  </defs>
  <g id="_レイヤー_1-2" data-name="レイヤー 1">
    <g>
      <rect class="cls-3" width="30" height="30" rx="4" ry="4"/>
      <g class="cls-4">
        <g>
          <path class="cls-1" d="M4.23,2c-1.23,0-2.23,1-2.23,2.23v21.54c0,1.23,1,2.23,2.23,2.23h21.54c1.23,0,2.23-1,2.23-2.23V4.23c0-1.23-1-2.23-2.23-2.23H4.23Z"/>
          <path class="cls-3" d="M23.96,17.37c-.43-.82-.78-1.23-.78-2.37s.35-1.55.78-2.37c.51-.97.53-2.01.05-2.83-.48-.83-1.38-1.33-2.48-1.37-.93-.04-1.45.06-2.44-.51-.99-.57-1.17-1.08-1.66-1.86-.59-.93-1.47-1.46-2.43-1.46s-1.84.53-2.43,1.46c-.49.78-.67,1.29-1.66,1.86-.99.57-1.52.47-2.44.51-1.1.04-2,.54-2.48,1.37-.48.83-.46,1.86.06,2.83.43.82.78,1.23.78,2.37s-.35,1.55-.78,2.37c-.51.97-.53,2.01-.06,2.83.48.83,1.38,1.33,2.48,1.37.93.04,1.45-.06,2.44.51.99.57,1.17,1.08,1.66,1.86.59.93,1.48,1.46,2.43,1.46s1.84-.53,2.43-1.46c.49-.78.67-1.29,1.66-1.86.99-.57,1.52-.47,2.44-.51,1.1-.04,2.01-.54,2.48-1.37.48-.83.46-1.86-.05-2.83ZM21.23,18.6c-.1.16-.37.23-.86.25-1.78.07-3.77,1.22-4.72,2.73-.26.41-.46.61-.65.61s-.39-.2-.65-.61c-.95-1.51-2.94-2.66-4.72-2.73-.49-.02-.76-.09-.86-.25-.09-.17-.02-.44.21-.87.83-1.58.83-3.88,0-5.46-.23-.43-.3-.7-.21-.87.1-.17.37-.24.86-.25,1.78-.08,3.77-1.22,4.72-2.73.26-.42.46-.61.65-.62.19,0,.39.2.65.62.95,1.51,2.94,2.65,4.72,2.73.49.01.76.08.86.25.09.17.02.44-.21.87-.83,1.58-.83,3.88,0,5.46.23.43.3.7.21.87Z"/>
        </g>
      </g>
    </g>
  </g>
</svg>